<svg id="Glyph" height="512" viewBox="0 0 16 16" width="512" xmlns="http://www.w3.org/2000/svg"><path d="m14 3h-6l-.72-1.45a1.0029 1.0029 0 0 0 -.9-.55h-4.38a1.0029 1.0029 0 0 0 -1 1v10a1.0029 1.0029 0 0 0 1 1h5.8232a3.746 3.746 0 0 1 -.3232-1.5 3.9874 3.9874 0 0 1 7.5-1.9v-5.6a1.0029 1.0029 0 0 0 -1-1z"/><path d="m11.5 8.5a3.0088 3.0088 0 0 0 -3 3 2.7036 2.7036 0 0 0 .3 1.27 2.993 2.993 0 1 0 2.7-4.27zm1.5 3.5h-1v1a.5.5 0 0 1 -1 0v-1h-1a.5.5 0 0 1 0-1h1v-1a.5.5 0 0 1 1 0v1h1a.5.5 0 0 1 0 1z"/></svg>