<svg height="512" viewBox="0 0 32 32" width="512" xmlns="http://www.w3.org/2000/svg"><g id="Layer_51" data-name="Layer 51"><path d="m29.615 11.712a.994.994 0 0 0 -.857-.182l-6.758 1.69v-3.22a1 1 0 0 0 -1-1h-2.382a4 4 0 1 0 -5.236 0h-3.162a3 3 0 1 0 -4.44 0h-2.78a1 1 0 0 0 -1 1v18a1 1 0 0 0 1 1h18a1 1 0 0 0 1-1v-3.22l6.758 1.69a1 1 0 0 0 1.242-.97v-13a1 1 0 0 0 -.385-.788zm-13.615-7.712a2 2 0 1 1 -2 2 2 2 0 0 1 2-2zm-8 2a1 1 0 1 1 -1 1 1 1 0 0 1 1-1zm12 21h-16v-16h16zm8-2.781-6-1.5v-7.438l6-1.5zm-12-6.219h-9a1 1 0 0 0 -1 1v4a1 1 0 0 0 1 1h9a1 1 0 0 0 1-1v-4a1 1 0 0 0 -1-1zm-1 4h-7v-2h7zm2-6a1 1 0 0 1 -1 1h-9a1 1 0 0 1 0-2h9a1 1 0 0 1 1 1z"/></g></svg>