<svg height="512" viewBox="0 0 32 32" width="512" xmlns="http://www.w3.org/2000/svg"><g id="_32-Flip" data-name="32-Flip"><path d="m3.71 6.29a1 1 0 0 0 -1.09-.21 1 1 0 0 0 -.62.92v18a1 1 0 0 0 .62.92.84.84 0 0 0 .38.08 1 1 0 0 0 .71-.29l9-9a1 1 0 0 0 0-1.42zm.29 16.3v-13.18l6.59 6.59z"/><path d="m29.38 6.08a1 1 0 0 0 -1.09.21l-9 9a1 1 0 0 0 0 1.42l9 9a1 1 0 0 0 .71.29.84.84 0 0 0 .38-.08 1 1 0 0 0 .62-.92v-18a1 1 0 0 0 -.62-.92zm-1.38 16.51-6.59-6.59 6.59-6.59z"/><path d="m16 2a1 1 0 0 0 -1 1v2a1 1 0 0 0 2 0v-2a1 1 0 0 0 -1-1z"/><path d="m16 8a1 1 0 0 0 -1 1v2a1 1 0 0 0 2 0v-2a1 1 0 0 0 -1-1z"/><path d="m16 14a1 1 0 0 0 -1 1v2a1 1 0 0 0 2 0v-2a1 1 0 0 0 -1-1z"/><path d="m16 20a1 1 0 0 0 -1 1v2a1 1 0 0 0 2 0v-2a1 1 0 0 0 -1-1z"/><path d="m16 26a1 1 0 0 0 -1 1v2a1 1 0 0 0 2 0v-2a1 1 0 0 0 -1-1z"/></g></svg>