<svg id="Capa_1" enable-background="new 0 0 512 512" height="512" viewBox="0 0 512 512" width="512" xmlns="http://www.w3.org/2000/svg"><g><path d="m91 512c49.706 0 90-41.294 90-91v-60c0-49.706-40.294-90-90-90s-91 40.294-91 90v60c0 49.706 41.294 91 91 91zm-15-196h30v90h-30z"/><path d="m271 45c0-24.814-20.186-45-45-45h-135v30h135c8.276 0 15 6.724 15 15v15h-241v222.472c22.013-25.199 54.99-41.472 91-41.472 55.748 0 102.321 38.392 115.739 90h305.261v-271h-241zm-30 76h30v30h-30zm-180 0h30v30h-30zm60 90h-60v-30h60zm0-90h30v30h-30zm60 90h-30v-30h30zm0-60v-30h30v30zm60 30v30h-30v-30zm90 90h-120v-30h120zm0-60h-60v-30h60zm120 60h-30v-30h30zm-60-60v-30h30v30zm-30-90h90v30h-90zm0 120h30v30h-30zm-60-120h30v30h-30z"/></g></svg>