<svg id="Capa_1" enable-background="new 0 0 512 512" height="512" viewBox="0 0 512 512" width="512" xmlns="http://www.w3.org/2000/svg"><g><path d="m266.102 377.181 47.837-25.34c-14.049 19.3-22.476 42.92-22.857 68.449l-39.08 20.71c-4.401 2.315-9.646 2.325-14.049 0l-219.085-116.058c-10.491-5.13-10.491-21.37 0-26.5l28.187-14.93 176.8 93.669c.02.01.04.02.06.03 6.473 3.41 13.748 5.21 21.053 5.21 7.338.003 14.649-1.815 21.134-5.24z"/><path d="m479.065 311.692c0 3.51-1.232 6.85-3.387 9.48-19.538-12.582-43.532-19.656-68.289-18.84l35.512-18.81 28.177 14.92c4.921 2.6 7.987 7.7 7.987 13.25z"/><path d="m479.065 221.373c0 5.55-3.066 10.65-7.986 13.25l-219.076 116.058c-4.401 2.315-9.646 2.325-14.049 0l-219.086-116.058c-10.491-5.13-10.491-21.37 0-26.5l28.177-14.92 176.81 93.659c13.042 6.978 29.314 6.975 42.356 0l176.75-93.629 28.117 14.89c4.921 2.6 7.987 7.7 7.987 13.25z"/><path d="m471.193 117.804-219.079-116.049c-4.425-2.34-9.738-2.34-14.163 0l-219.079 116.049c-10.492 5.13-10.482 21.38 0 26.51l219.079 116.049c4.44 2.34 9.723 2.34 14.163 0l219.079-116.049c10.483-5.13 10.493-21.38 0-26.51z"/><path d="m411.067 332.282h-.01c-49.591 0-89.933 40.31-89.933 89.859s40.342 89.849 89.933 89.859h.01c49.581 0 89.933-40.31 89.933-89.859s-40.352-89.859-89.933-89.859zm26.053 104.859h-11.203v11.02c0 8.23-6.644 14.92-14.86 15h-.15c-8.287 0-15.001-6.72-15.001-15v-11.02h-10.892c-8.287 0-15.001-6.72-15.001-15 0-8.29 6.714-15 15.001-15h10.892v-11.03c0-8.28 6.714-15 15.001-15h.15c8.217.08 14.86 6.77 14.86 15v11.03h11.203c8.277 0 15 6.71 15 15 0 8.28-6.723 15-15 15z"/></g></svg>