<svg id="Capa_1" enable-background="new 0 0 509.96 509.96" height="512" viewBox="0 0 509.96 509.96" width="512" xmlns="http://www.w3.org/2000/svg">
    <g id="XMLID_837_">
        <path id="XMLID_864_" fill="#ffffff" d="m167.722 282.747c0 15.162 12.335 27.496 27.496 27.496s27.496-12.334 27.496-27.496v-136.511c-19.116-1.107-37.594-3.192-54.992-6.193z"/>
        <path id="XMLID_865_" fill="#000000" d="m421.59 374.66c-46.88 33.67-105.42 52.05-166.61 52.05s-119.73-18.38-166.61-52.05c-4.29-3.07-14.2-10.96-15.01-11.63-5.26-4.41-10.26-8.97-15-13.68l.02 79.67.04 1.2c4.15 51.43 102.02 78.34 196.56 78.34s192.41-26.91 196.56-78.34l.04-.6.02-80.27c-4.74 4.71-9.74 9.27-15 13.68-.81.67-10.72 8.56-15.01 11.63z"/>
        <path id="XMLID_866_" fill="#000000" d="m451.67 96.24v-.333c-10.35 10.015-26.398 20.054-50.817 28.997-8.929 3.27-18.519 6.202-28.645 8.785.008.201.03.399.03.602v92.442c0 8.284-6.716 15-15 15s-15-6.716-15-15v-86.69c-27.032 4.662-56.667 7.123-87.259 7.123-.757 0-1.511-.007-2.266-.01v135.591c0 31.704-25.792 57.496-57.496 57.496s-57.496-25.792-57.496-57.496v-148.455h2.414c-11.008-2.726-21.401-5.861-31.029-9.387-24.419-8.944-40.467-18.982-50.817-28.997v.333c-33.239 6.949-58.289 36.479-58.289 71.749v51.89c0 46.2 21.02 92.35 58.36 129.47l-.01-46.19c-18.34-25.89-28.35-54.7-28.35-83.28v-51.89c0-18.6 11.8-34.5 28.3-40.61l.05 175.78c4.5 6.36 9.51 12.55 15 18.51 4.66 5.07 19.23 18.34 21.42 20.13 43.42 35.41 100.32 54.91 160.21 54.91s116.79-19.5 160.21-54.91c2.19-1.79 16.76-15.06 21.42-20.13 5.49-5.96 10.5-12.15 15-18.51l.05-175.78c16.5 6.11 28.3 22.01 28.3 40.61v51.89c0 28.58-10.01 57.39-28.35 83.28l-.01 46.19c37.34-37.12 58.36-83.27 58.36-129.47v-51.89c0-35.27-25.05-64.8-58.29-71.75z"/>
        <path id="XMLID_867_" fill="#000000" d="m85.314 79.46c39.493-20.532 101.859-32.631 169.666-32.631 67.808 0 130.174 12.1 169.666 32.631 10.184-7.579 14.334-14.742 14.334-20.176 0-9.528-12.727-24.369-48.444-37.451-35.975-13.177-84.117-20.433-135.556-20.433s-99.581 7.256-135.556 20.432c-35.717 13.082-48.444 27.923-48.444 37.451 0 5.434 4.15 12.598 14.334 20.177z"/>
        <path id="XMLID_868_" fill="#ffffff" d="m389.81 96.994c-35.06-12.693-83.668-20.165-134.83-20.165-51.163 0-99.771 7.472-134.831 20.165 35.896 13.01 83.733 20.173 134.831 20.173 51.097 0 98.934-7.163 134.83-20.173z"/>
    </g>
</svg>