<svg id="Layer_1" enable-background="new 0 0 24 24" height="512" viewBox="0 0 24 24" width="512" xmlns="http://www.w3.org/2000/svg"><g><g><path d="m8 8.9c-.3 0-.5-.1-.7-.3l-5-4.9c-.4-.4-.4-1 0-1.4s1-.4 1.4 0l5 4.9c.4.4.4 1 0 1.4-.2.3-.4.3-.7.3z" fill="rgb(0,0,0)"/></g><g><path d="m3 22c-.3 0-.5-.1-.7-.3-.4-.4-.4-1 0-1.4l5-5c.4-.4 1-.4 1.4 0s.4 1 0 1.4l-5 5c-.2.2-.4.3-.7.3z" fill="rgb(0,0,0)"/></g><g><path d="m21 22c-.3 0-.5-.1-.7-.3l-4.9-5c-.4-.4-.4-1 0-1.4s1-.4 1.4 0l4.9 5c.4.4.4 1 0 1.4-.2.2-.4.3-.7.3z" fill="rgb(0,0,0)"/></g><g><path d="m16 8.9c-.3 0-.5-.1-.7-.3-.4-.4-.4-1 0-1.4l5-4.9c.4-.4 1-.4 1.4 0s.4 1 0 1.4l-5 4.9c-.2.3-.4.3-.7.3z" fill="rgb(0,0,0)"/></g><g><path d="m21 8.5c-.6 0-1-.4-1-1v-3.5h-3.5c-.6 0-1-.4-1-1s.4-1 1-1h4.5c.6 0 1 .4 1 1v4.5c0 .6-.4 1-1 1z" fill="rgb(0,0,0)"/></g><g><path d="m21 22h-4.5c-.6 0-1-.4-1-1s.4-1 1-1h3.5v-3.5c0-.6.4-1 1-1s1 .4 1 1v4.5c0 .6-.4 1-1 1z" fill="rgb(0,0,0)"/></g><g><path d="m7.5 22h-4.5c-.6 0-1-.4-1-1v-4.5c0-.6.4-1 1-1s1 .4 1 1v3.5h3.5c.6 0 1 .4 1 1s-.4 1-1 1z" fill="rgb(0,0,0)"/></g><g><path d="m3 8.5c-.6 0-1-.4-1-1v-4.5c0-.6.4-1 1-1h4.5c.6 0 1 .4 1 1s-.4 1-1 1h-3.5v3.5c0 .6-.4 1-1 1z" fill="rgb(0,0,0)"/></g></g></svg>