<svg id="Capa_1" enable-background="new 0 0 512.774 512.774" height="512" viewBox="0 0 512.774 512.774" width="512" xmlns="http://www.w3.org/2000/svg"><g><path d="m0 .5h90v90h-90z"/><path d="m0 342.5h90v90h-90z"/><path d="m341 .5h90v90h-90z"/><path d="m30 268.5h30v44h-30z"/><path d="m30 194.5h30v44h-30z"/><path d="m30 120.5h30v44h-30z"/><path d="m371 194.5h30v44h-30z"/><path d="m371 120.5h30v44h-30z"/><path d="m120 30.5h44v30h-44z"/><path d="m194 30.5h44v30h-44z"/><path d="m268 30.5h44v30h-44z"/><path d="m120 372.5h44v30h-44z"/><path d="m194 372.5h44v30h-44z"/><path d="m401 318.045v-49.545h-30v37.806l-105.462-41.268 42.05 107.462h-39.588v30h51.327l42.955 109.774 50.388-100.104 100.104-50.388z"/></g></svg>