<svg height="512" viewBox="0 0 32 32" width="512" xmlns="http://www.w3.org/2000/svg"><g id="_33-Flip" data-name="33-Flip"><path d="m25 2h-18a1 1 0 0 0 -.92.62 1 1 0 0 0 .21 1.09l9 9a1 1 0 0 0 1.42 0l9-9a1 1 0 0 0 .21-1.09 1 1 0 0 0 -.92-.62zm-9 8.59-6.59-6.59h13.18z"/><path d="m16.71 19.29a1 1 0 0 0 -1.42 0l-9 9a1 1 0 0 0 -.21 1.09 1 1 0 0 0 .92.62h18a1 1 0 0 0 .92-.62 1 1 0 0 0 -.21-1.09zm-7.3 8.71 6.59-6.59 6.59 6.59z"/><path d="m29 15h-2a1 1 0 0 0 0 2h2a1 1 0 0 0 0-2z"/><path d="m23 17a1 1 0 0 0 0-2h-2a1 1 0 0 0 0 2z"/><path d="m17 17a1 1 0 0 0 0-2h-2a1 1 0 0 0 0 2z"/><path d="m11 17a1 1 0 0 0 0-2h-2a1 1 0 0 0 0 2z"/><path d="m5 15h-2a1 1 0 0 0 0 2h2a1 1 0 0 0 0-2z"/></g></svg>